<svg width="523" height="159" viewBox="0 0 523 159" fill="none" xmlns="http://www.w3.org/2000/svg">
<path d="M33.5156 157H23.2031L21.9141 123.484H14.2603L12.8906 157H2.57812L10.3125 17.7812H25.7812L33.5156 157ZM20.625 84.8125L18.0469 22.9375L15.4688 84.8125L14.2603 115.75H21.9141L20.625 84.8125ZM51.5625 145.398C51.5625 147.332 51.9653 148.675 52.771 149.427C53.5767 150.179 54.4629 150.555 55.4297 150.555C56.3965 150.555 57.2827 150.179 58.0884 149.427C58.894 148.675 59.2969 147.332 59.2969 145.398V102.859H56.7188V95.125H69.6094V145.398C69.6094 147.654 69.2065 149.615 68.4009 151.28C67.5952 152.891 66.521 154.234 65.1782 155.308C63.8354 156.329 62.3047 157.081 60.5859 157.564C58.9209 158.047 57.2021 158.289 55.4297 158.289C53.6572 158.289 51.9116 158.047 50.1929 157.564C48.5278 157.081 47.0239 156.329 45.6812 155.308C44.3384 154.234 43.2642 152.891 42.4585 151.28C41.6528 149.615 41.25 147.654 41.25 145.398V43.5625C41.25 41.3066 41.6528 39.373 42.4585 37.7617C43.2642 36.0967 44.3384 34.7539 45.6812 33.7334C47.0239 32.6592 48.5278 31.8804 50.1929 31.397C51.9116 30.9136 53.6572 30.6719 55.4297 30.6719C57.2021 30.6719 58.9209 30.9136 60.5859 31.397C62.3047 31.8804 63.8354 32.6592 65.1782 33.7334C66.521 34.7539 67.5952 36.0698 68.4009 37.6812C69.2065 39.2925 69.6094 41.2261 69.6094 43.4819V84.8125H59.2969V43.4819C59.2969 41.5483 58.894 40.2324 58.0884 39.5342C57.2827 38.7822 56.3965 38.4062 55.4297 38.4062C54.4629 38.4062 53.5767 38.7822 52.771 39.5342C51.9653 40.2324 51.5625 41.5483 51.5625 43.4819V145.398ZM100.547 40.9844H90.2344V87.3906H100.547V95.125H90.2344V149.266H100.547V157H79.9219V33.25H100.547V40.9844ZM158.394 145.398C158.394 147.654 157.964 149.615 157.104 151.28C156.299 152.891 155.198 154.234 153.801 155.308C152.405 156.382 150.82 157.161 149.048 157.645C147.275 158.182 145.449 158.45 143.569 158.45C141.582 158.45 139.622 158.155 137.688 157.564C135.754 157.027 134.036 156.221 132.532 155.147C131.028 154.019 129.792 152.649 128.826 151.038C127.913 149.373 127.456 147.493 127.456 145.398V44.8516C127.456 42.8105 127.913 41.0112 128.826 39.4536C129.792 37.8423 131.028 36.4995 132.532 35.4253C134.089 34.3511 135.835 33.5454 137.769 33.0083C139.702 32.4175 141.663 32.1221 143.65 32.1221C145.53 32.1221 147.356 32.3906 149.128 32.9277C150.901 33.4111 152.458 34.1899 153.801 35.2642C155.198 36.2847 156.299 37.6006 157.104 39.2119C157.964 40.8232 158.394 42.7031 158.394 44.8516V145.398ZM148.081 44.8516C148.081 43.0254 147.625 41.7363 146.711 40.9844C145.852 40.1787 144.832 39.7759 143.65 39.7759C142.952 39.7759 142.253 39.9102 141.555 40.1787C140.857 40.3936 140.212 40.7427 139.622 41.2261C139.084 41.6558 138.628 42.1929 138.252 42.8374C137.93 43.4282 137.769 44.0996 137.769 44.8516V145.398C137.769 146.15 137.93 146.849 138.252 147.493C138.628 148.138 139.084 148.675 139.622 149.104C140.212 149.534 140.83 149.883 141.475 150.152C142.173 150.367 142.871 150.474 143.569 150.474C144.751 150.474 145.798 150.098 146.711 149.346C147.625 148.541 148.081 147.225 148.081 145.398V44.8516ZM191.909 40.9844H179.019V87.3906H189.331V95.125H179.019V157H168.706V33.25H191.909V40.9844ZM240.732 25.5156H227.842V79.6562H238.154V87.3906H227.842V149.266H240.732V157H217.529V17.7812H240.732V25.5156ZM275.457 33.25H284.561V157H275.537V82.2344L268.528 151.844H264.5L257.49 82.2344V157H248.467V33.25H257.571L266.514 108.016L275.457 33.25ZM325.811 87.3906C325.811 90.6133 325.22 93.1108 324.038 94.8833C322.856 96.6021 321.299 97.8643 319.365 98.6699C317.432 99.4756 315.229 99.959 312.759 100.12C310.288 100.228 307.764 100.281 305.186 100.281V157H294.873V33.25H307.764C312.329 33.25 315.82 33.6797 318.237 34.5391C320.708 35.3984 322.507 36.4727 323.635 37.7617C324.763 39.0508 325.408 40.4473 325.569 41.9512C325.73 43.4551 325.811 44.8516 325.811 46.1406V87.3906ZM315.498 46.1406C315.498 44.8516 315.31 43.8579 314.934 43.1597C314.612 42.4614 314.048 41.9512 313.242 41.6289C312.437 41.3066 311.362 41.1187 310.02 41.0649C308.73 41.0112 307.119 40.9844 305.186 40.9844V92.5469C306.475 92.5469 307.737 92.52 308.972 92.4663C310.208 92.3589 311.309 92.0635 312.275 91.5801C313.242 91.0967 314.021 90.3447 314.612 89.3242C315.203 88.25 315.498 86.7461 315.498 84.8125V46.1406ZM345.146 33.25V157H334.834V33.25H345.146ZM385.107 84.8125C385.107 87.3906 384.463 89.3779 383.174 90.7744C381.885 92.1709 379.951 93.1646 377.373 93.7554C379.951 94.4536 381.885 95.501 383.174 96.8975C384.463 98.2939 385.107 100.281 385.107 102.859V157H374.795V102.859C374.795 101.57 374.634 100.577 374.312 99.8784C373.989 99.1802 373.506 98.6699 372.861 98.3477C372.217 98.0254 371.411 97.8374 370.444 97.7837C369.478 97.73 368.35 97.7031 367.061 97.7031V157H356.748V33.25H368.35C371.841 33.25 374.822 33.5454 377.292 34.1362C379.817 34.6733 381.75 35.667 383.093 37.1172C384.436 38.5137 385.107 40.6621 385.107 43.5625V84.8125ZM374.795 46.1406C374.795 44.8516 374.634 43.8579 374.312 43.1597C373.989 42.4614 373.506 41.9512 372.861 41.6289C372.217 41.3066 371.411 41.1187 370.444 41.0649C369.478 41.0112 368.35 40.9844 367.061 40.9844V89.9688C368.35 89.9688 369.478 89.9419 370.444 89.8882C371.411 89.8345 372.217 89.6465 372.861 89.3242C373.506 89.002 373.989 88.4917 374.312 87.7935C374.634 87.0952 374.795 86.1016 374.795 84.8125V46.1406ZM416.045 40.9844H405.732V87.3906H416.045V95.125H405.732V149.266H416.045V157H395.42V33.25H416.045V40.9844ZM452.139 77.0781H441.826V44.8516C441.826 42.918 441.423 41.5752 440.618 40.8232C439.812 40.0713 438.926 39.6953 437.959 39.6953C436.992 39.6953 436.106 40.0713 435.3 40.8232C434.495 41.5752 434.092 42.918 434.092 44.8516C434.092 50.5986 434.36 55.8892 434.897 60.7231C435.435 65.5571 436.133 70.0151 436.992 74.0972C437.852 78.1792 438.818 81.9121 439.893 85.2959C440.967 88.626 442.041 91.6875 443.115 94.4805C443.975 96.6826 444.915 99.2339 445.935 102.134C447.009 105.035 448.003 108.499 448.916 112.527C449.829 116.556 450.581 121.255 451.172 126.626C451.816 131.998 452.139 138.255 452.139 145.398C452.139 147.654 451.736 149.615 450.93 151.28C450.125 152.891 449.05 154.234 447.708 155.308C446.365 156.329 444.834 157.081 443.115 157.564C441.45 158.047 439.731 158.289 437.959 158.289C436.187 158.289 434.441 158.047 432.722 157.564C431.057 157.081 429.553 156.329 428.21 155.308C426.868 154.234 425.793 152.891 424.988 151.28C424.182 149.615 423.779 147.654 423.779 145.398V113.172H434.092V145.398C434.092 147.332 434.495 148.675 435.3 149.427C436.106 150.179 436.992 150.555 437.959 150.555C438.926 150.555 439.812 150.179 440.618 149.427C441.423 148.675 441.826 147.332 441.826 145.398C441.826 138.47 441.477 132.4 440.779 127.19C440.134 121.927 439.302 117.308 438.281 113.333C437.261 109.305 436.133 105.787 434.897 102.779C433.716 99.771 432.615 97.0049 431.594 94.4805C430.574 92.0098 429.58 89.1899 428.613 86.021C427.7 82.8521 426.868 79.2534 426.116 75.2251C425.417 71.1968 424.854 66.6851 424.424 61.6899C423.994 56.6411 423.779 51.0283 423.779 44.8516C423.779 42.5957 424.182 40.6621 424.988 39.0508C425.793 37.4395 426.868 36.1235 428.21 35.103C429.553 34.0288 431.057 33.25 432.722 32.7666C434.441 32.2295 436.187 31.9609 437.959 31.9609C439.731 31.9609 441.45 32.2295 443.115 32.7666C444.834 33.25 446.365 34.0288 447.708 35.103C449.05 36.1235 450.125 37.4395 450.93 39.0508C451.736 40.6621 452.139 42.5957 452.139 44.8516V77.0781ZM493.228 17.7812V157H482.915V17.7812H493.228ZM516.431 17.7812V157H506.118V17.7812H516.431Z" fill="white"/>
<path d="M298.048 2.908V28H294.772V2.908H298.048ZM313.243 7.912C315.643 7.912 317.587 8.644 319.075 10.108C320.563 11.548 321.307 13.636 321.307 16.372V28H318.067V16.84C318.067 14.872 317.575 13.372 316.591 12.34C315.607 11.284 314.263 10.756 312.559 10.756C310.831 10.756 309.451 11.296 308.419 12.376C307.411 13.456 306.907 15.028 306.907 17.092V28H303.631V8.272H306.907V11.08C307.555 10.072 308.431 9.292 309.535 8.74C310.663 8.188 311.899 7.912 313.243 7.912ZM330.655 10.972V22.6C330.655 23.56 330.859 24.244 331.267 24.652C331.675 25.036 332.383 25.228 333.391 25.228H335.803V28H332.851C331.027 28 329.659 27.58 328.747 26.74C327.835 25.9 327.379 24.52 327.379 22.6V10.972H324.823V8.272H327.379V3.304H330.655V8.272H335.803V10.972H330.655ZM357.772 17.38C357.772 18.004 357.736 18.664 357.664 19.36H341.896C342.016 21.304 342.676 22.828 343.876 23.932C345.1 25.012 346.576 25.552 348.304 25.552C349.72 25.552 350.896 25.228 351.832 24.58C352.792 23.908 353.464 23.02 353.848 21.916H357.376C356.848 23.812 355.792 25.36 354.208 26.56C352.624 27.736 350.656 28.324 348.304 28.324C346.432 28.324 344.752 27.904 343.264 27.064C341.8 26.224 340.648 25.036 339.808 23.5C338.968 21.94 338.548 20.14 338.548 18.1C338.548 16.06 338.956 14.272 339.772 12.736C340.588 11.2 341.728 10.024 343.192 9.208C344.68 8.368 346.384 7.948 348.304 7.948C350.176 7.948 351.832 8.356 353.272 9.172C354.712 9.988 355.816 11.116 356.584 12.556C357.376 13.972 357.772 15.58 357.772 17.38ZM354.388 16.696C354.388 15.448 354.112 14.38 353.56 13.492C353.008 12.58 352.252 11.896 351.292 11.44C350.356 10.96 349.312 10.72 348.16 10.72C346.504 10.72 345.088 11.248 343.912 12.304C342.76 13.36 342.1 14.824 341.932 16.696H354.388ZM365.372 11.476C365.948 10.348 366.764 9.472 367.82 8.848C368.9 8.224 370.208 7.912 371.744 7.912V11.296H370.88C367.208 11.296 365.372 13.288 365.372 17.272V28H362.096V8.272H365.372V11.476ZM383.554 10.972H379.414V28H376.138V10.972H373.582V8.272H376.138V6.868C376.138 4.66 376.702 3.052 377.83 2.044C378.982 1.012 380.818 0.495998 383.338 0.495998V3.232C381.898 3.232 380.878 3.52 380.278 4.096C379.702 4.648 379.414 5.572 379.414 6.868V8.272H383.554V10.972ZM386.15 18.064C386.15 16.048 386.558 14.284 387.374 12.772C388.19 11.236 389.306 10.048 390.722 9.208C392.162 8.368 393.758 7.948 395.51 7.948C397.238 7.948 398.738 8.32 400.01 9.064C401.282 9.808 402.23 10.744 402.854 11.872V8.272H406.166V28H402.854V24.328C402.206 25.48 401.234 26.44 399.938 27.208C398.666 27.952 397.178 28.324 395.474 28.324C393.722 28.324 392.138 27.892 390.722 27.028C389.306 26.164 388.19 24.952 387.374 23.392C386.558 21.832 386.15 20.056 386.15 18.064ZM402.854 18.1C402.854 16.612 402.554 15.316 401.954 14.212C401.354 13.108 400.538 12.268 399.506 11.692C398.498 11.092 397.382 10.792 396.158 10.792C394.934 10.792 393.818 11.08 392.81 11.656C391.802 12.232 390.998 13.072 390.398 14.176C389.798 15.28 389.498 16.576 389.498 18.064C389.498 19.576 389.798 20.896 390.398 22.024C390.998 23.128 391.802 23.98 392.81 24.58C393.818 25.156 394.934 25.444 396.158 25.444C397.382 25.444 398.498 25.156 399.506 24.58C400.538 23.98 401.354 23.128 401.954 22.024C402.554 20.896 402.854 19.588 402.854 18.1ZM410.478 18.1C410.478 16.06 410.886 14.284 411.702 12.772C412.518 11.236 413.646 10.048 415.086 9.208C416.55 8.368 418.218 7.948 420.09 7.948C422.514 7.948 424.506 8.536 426.066 9.712C427.65 10.888 428.694 12.52 429.198 14.608H425.67C425.334 13.408 424.674 12.46 423.69 11.764C422.73 11.068 421.53 10.72 420.09 10.72C418.218 10.72 416.706 11.368 415.554 12.664C414.402 13.936 413.826 15.748 413.826 18.1C413.826 20.476 414.402 22.312 415.554 23.608C416.706 24.904 418.218 25.552 420.09 25.552C421.53 25.552 422.73 25.216 423.69 24.544C424.65 23.872 425.31 22.912 425.67 21.664H429.198C428.67 23.68 427.614 25.3 426.03 26.524C424.446 27.724 422.466 28.324 420.09 28.324C418.218 28.324 416.55 27.904 415.086 27.064C413.646 26.224 412.518 25.036 411.702 23.5C410.886 21.964 410.478 20.164 410.478 18.1ZM451.569 17.38C451.569 18.004 451.533 18.664 451.461 19.36H435.693C435.813 21.304 436.473 22.828 437.673 23.932C438.897 25.012 440.373 25.552 442.101 25.552C443.517 25.552 444.693 25.228 445.629 24.58C446.589 23.908 447.261 23.02 447.645 21.916H451.173C450.645 23.812 449.589 25.36 448.005 26.56C446.421 27.736 444.453 28.324 442.101 28.324C440.229 28.324 438.549 27.904 437.061 27.064C435.597 26.224 434.445 25.036 433.605 23.5C432.765 21.94 432.345 20.14 432.345 18.1C432.345 16.06 432.753 14.272 433.569 12.736C434.385 11.2 435.525 10.024 436.989 9.208C438.477 8.368 440.181 7.948 442.101 7.948C443.973 7.948 445.629 8.356 447.069 9.172C448.509 9.988 449.613 11.116 450.381 12.556C451.173 13.972 451.569 15.58 451.569 17.38ZM448.185 16.696C448.185 15.448 447.909 14.38 447.357 13.492C446.805 12.58 446.049 11.896 445.089 11.44C444.153 10.96 443.109 10.72 441.957 10.72C440.301 10.72 438.885 11.248 437.709 12.304C436.557 13.36 435.897 14.824 435.729 16.696H448.185Z" fill="white"/>
</svg>
